<?xml version="1.0" standalone="no"?>
<!DOCTYPE svg PUBLIC "-//W3C//DTD SVG 20010904//EN"
 "http://www.w3.org/TR/2001/REC-SVG-20010904/DTD/svg10.dtd">
<svg version="1.0" xmlns="http://www.w3.org/2000/svg"
 width="175.000000pt" height="174.000000pt" viewBox="0 0 175.000000 174.000000"
 preserveAspectRatio="xMidYMid meet">

<g transform="translate(0.000000,174.000000) scale(0.100000,-0.100000)"
fill="#000000" stroke="none">
<path d="M846 1371 c-17 -19 -18 -22 -2 -45 9 -14 16 -33 16 -43 0 -38 -100
-223 -120 -223 -16 0 -170 129 -160 135 17 11 11 54 -9 65 -46 24 -80 -30 -40
-63 19 -15 32 -51 64 -179 l40 -161 240 0 239 0 7 29 c4 16 21 90 39 165 26
114 35 138 51 142 26 7 23 55 -4 71 -15 9 -22 7 -37 -12 -16 -19 -18 -28 -9
-45 13 -23 15 -20 -98 -108 l-53 -41 -20 23 c-28 35 -81 137 -95 183 -10 35
-9 42 7 58 17 17 18 22 5 41 -19 29 -39 32 -61 8z m44 -186 c0 -7 20 -44 45
-81 50 -74 50 -73 -19 -122 l-44 -32 -51 40 c-28 22 -51 43 -51 45 0 3 16 27
35 54 19 26 42 65 50 85 15 35 35 41 35 11z m-210 -123 l35 -30 -29 -31 c-17
-17 -33 -31 -37 -31 -8 0 -22 45 -35 109 -6 30 -5 32 12 23 10 -6 35 -24 54
-40z m457 35 c-2 -7 -10 -38 -17 -70 -6 -31 -13 -57 -15 -57 -3 0 -20 14 -40
31 l-35 31 48 39 c49 40 68 48 59 26z m-298 -159 c34 -25 42 -23 106 27 l58
44 26 -19 c73 -54 75 -57 65 -79 -9 -21 -16 -21 -222 -24 l-213 -2 -6 23 c-3
13 -4 25 -2 27 2 2 24 19 49 39 l44 35 36 -26 c19 -15 46 -35 59 -45z"/>
<path d="M710 821 c-47 -4 -65 -10 -65 -20 0 -12 12 -14 60 -10 33 2 138 3
233 2 132 -2 172 1 169 10 -7 22 -235 32 -397 18z"/>
<path d="M873 698 c-5 -7 -27 -57 -47 -110 -20 -53 -42 -99 -49 -102 -7 -2 3
-5 22 -5 25 -1 31 2 23 12 -6 7 -6 21 -1 35 7 18 16 22 48 22 35 0 42 -4 47
-24 3 -14 3 -30 -1 -35 -4 -7 9 -11 37 -10 24 0 38 3 32 5 -7 3 -29 51 -50
107 -42 115 -47 123 -61 105z m15 -95 c11 -32 10 -33 -20 -33 -23 0 -29 3 -24
16 3 9 9 27 12 41 8 28 17 21 32 -24z"/>
<path d="M138 693 c17 -7 17 -199 0 -206 -7 -3 10 -5 37 -5 28 0 44 2 38 5
-14 5 -18 93 -4 93 4 0 22 -22 39 -50 26 -42 36 -50 61 -50 l29 0 -28 31 c-38
40 -46 66 -26 88 9 10 16 29 16 44 0 40 -33 57 -110 56 -36 0 -59 -3 -52 -6z
m110 -25 c19 -19 14 -45 -10 -62 -33 -24 -38 -20 -38 29 0 37 3 45 18 45 10 0
23 -5 30 -12z"/>
<path d="M384 666 c-38 -38 -45 -85 -20 -135 30 -58 128 -71 176 -22 52 51 52
111 0 162 -23 24 -37 29 -75 29 -40 0 -52 -5 -81 -34z m116 6 c34 -28 40 -117
10 -154 -38 -49 -95 -31 -110 35 -9 43 1 91 26 118 22 24 46 24 74 1z"/>
<path d="M621 641 c31 -47 39 -68 39 -104 0 -27 -5 -47 -12 -50 -7 -3 10 -5
37 -5 28 0 44 2 38 5 -8 3 -13 24 -13 54 0 40 7 61 35 104 l35 55 -33 0 c-24
0 -28 -3 -17 -10 13 -8 13 -14 -4 -45 -23 -41 -34 -41 -60 4 -16 28 -17 34 -5
42 9 6 -2 9 -33 9 l-46 0 39 -59z"/>
<path d="M1038 688 c16 -16 16 -180 0 -196 -9 -9 5 -12 65 -12 71 0 78 2 86
23 11 27 3 38 -10 14 -7 -12 -22 -17 -49 -17 l-40 0 0 88 c0 55 4 92 12 100 9
9 2 12 -32 12 -34 0 -41 -3 -32 -12z"/>
<path d="M1190 673 c1 -25 2 -26 14 -10 7 9 25 17 40 17 l26 0 0 -88 c0 -55
-4 -92 -12 -100 -9 -9 -2 -12 32 -12 34 0 41 3 32 12 -8 8 -12 45 -12 100 0
87 0 88 25 88 14 0 28 -7 31 -15 9 -23 26 -18 22 8 -3 21 -8 22 -100 25 l-98
3 0 -28z"/>
<path d="M1450 643 c33 -46 40 -65 40 -104 0 -28 -5 -49 -12 -52 -7 -3 10 -5
37 -5 28 0 44 2 38 5 -8 3 -13 23 -13 52 0 36 8 59 31 97 17 27 37 52 43 56 6
4 -3 8 -21 8 -24 0 -31 -4 -27 -14 6 -16 -22 -76 -35 -76 -5 0 -19 16 -32 36
-18 30 -19 38 -8 45 9 6 -2 9 -33 9 l-47 0 39 -57z"/>
</g>
</svg>
